<mxfile host="app.diagrams.net" agent="Mozilla/5.0 (Macintosh; Intel Mac OS X 10_15_7) AppleWebKit/605.1.15 (KHTML, like Gecko) Version/18.1 Safari/605.1.15" version="26.0.12">
  <diagram name="Page-1" id="RBVXxOt1Azc__t0kTGbh">
    <mxGraphModel dx="838" dy="593" grid="1" gridSize="10" guides="1" tooltips="1" connect="1" arrows="1" fold="1" page="1" pageScale="1" pageWidth="850" pageHeight="1100" math="0" shadow="0">
      <root>
        <mxCell id="0" />
        <mxCell id="1" parent="0" />
        <mxCell id="Ldt3ZAQf8FWS-OpaR_-I-7" style="edgeStyle=orthogonalEdgeStyle;rounded=0;orthogonalLoop=1;jettySize=auto;html=1;exitX=1;exitY=0.5;exitDx=0;exitDy=0;entryX=0;entryY=0.5;entryDx=0;entryDy=0;" edge="1" parent="1" source="Ldt3ZAQf8FWS-OpaR_-I-1" target="Ldt3ZAQf8FWS-OpaR_-I-2">
          <mxGeometry relative="1" as="geometry" />
        </mxCell>
        <mxCell id="Ldt3ZAQf8FWS-OpaR_-I-14" style="edgeStyle=orthogonalEdgeStyle;rounded=0;orthogonalLoop=1;jettySize=auto;html=1;exitX=0.5;exitY=1;exitDx=0;exitDy=0;entryX=0;entryY=0.5;entryDx=0;entryDy=0;" edge="1" parent="1" source="Ldt3ZAQf8FWS-OpaR_-I-1" target="Ldt3ZAQf8FWS-OpaR_-I-10">
          <mxGeometry relative="1" as="geometry" />
        </mxCell>
        <mxCell id="Ldt3ZAQf8FWS-OpaR_-I-1" value="Query" style="rounded=1;whiteSpace=wrap;html=1;" vertex="1" parent="1">
          <mxGeometry x="80" y="200" width="120" height="80" as="geometry" />
        </mxCell>
        <mxCell id="Ldt3ZAQf8FWS-OpaR_-I-6" style="edgeStyle=orthogonalEdgeStyle;rounded=0;orthogonalLoop=1;jettySize=auto;html=1;exitX=1;exitY=0.5;exitDx=0;exitDy=0;entryX=0;entryY=0.5;entryDx=0;entryDy=0;" edge="1" parent="1" source="Ldt3ZAQf8FWS-OpaR_-I-2" target="Ldt3ZAQf8FWS-OpaR_-I-3">
          <mxGeometry relative="1" as="geometry" />
        </mxCell>
        <mxCell id="Ldt3ZAQf8FWS-OpaR_-I-2" value="Embedding service" style="rounded=1;whiteSpace=wrap;html=1;" vertex="1" parent="1">
          <mxGeometry x="280" y="200" width="120" height="80" as="geometry" />
        </mxCell>
        <mxCell id="Ldt3ZAQf8FWS-OpaR_-I-11" style="edgeStyle=orthogonalEdgeStyle;rounded=0;orthogonalLoop=1;jettySize=auto;html=1;exitX=0.5;exitY=1;exitDx=0;exitDy=0;entryX=0.5;entryY=0;entryDx=0;entryDy=0;" edge="1" parent="1" source="Ldt3ZAQf8FWS-OpaR_-I-3" target="Ldt3ZAQf8FWS-OpaR_-I-8">
          <mxGeometry relative="1" as="geometry" />
        </mxCell>
        <mxCell id="Ldt3ZAQf8FWS-OpaR_-I-3" value="Retriever" style="rounded=1;whiteSpace=wrap;html=1;" vertex="1" parent="1">
          <mxGeometry x="480" y="200" width="120" height="80" as="geometry" />
        </mxCell>
        <mxCell id="Ldt3ZAQf8FWS-OpaR_-I-5" style="edgeStyle=orthogonalEdgeStyle;rounded=0;orthogonalLoop=1;jettySize=auto;html=1;exitX=0.5;exitY=1;exitDx=0;exitDy=0;" edge="1" parent="1" source="Ldt3ZAQf8FWS-OpaR_-I-4" target="Ldt3ZAQf8FWS-OpaR_-I-3">
          <mxGeometry relative="1" as="geometry" />
        </mxCell>
        <mxCell id="Ldt3ZAQf8FWS-OpaR_-I-4" value="Vector DB" style="rounded=1;whiteSpace=wrap;html=1;" vertex="1" parent="1">
          <mxGeometry x="480" y="40" width="120" height="80" as="geometry" />
        </mxCell>
        <mxCell id="Ldt3ZAQf8FWS-OpaR_-I-12" style="edgeStyle=orthogonalEdgeStyle;rounded=0;orthogonalLoop=1;jettySize=auto;html=1;exitX=0.5;exitY=1;exitDx=0;exitDy=0;" edge="1" parent="1" source="Ldt3ZAQf8FWS-OpaR_-I-8" target="Ldt3ZAQf8FWS-OpaR_-I-10">
          <mxGeometry relative="1" as="geometry" />
        </mxCell>
        <mxCell id="Ldt3ZAQf8FWS-OpaR_-I-8" value="Re-ranker" style="rounded=1;whiteSpace=wrap;html=1;" vertex="1" parent="1">
          <mxGeometry x="480" y="360" width="120" height="80" as="geometry" />
        </mxCell>
        <mxCell id="Ldt3ZAQf8FWS-OpaR_-I-15" style="edgeStyle=orthogonalEdgeStyle;rounded=0;orthogonalLoop=1;jettySize=auto;html=1;exitX=0;exitY=0.5;exitDx=0;exitDy=0;entryX=1;entryY=0.5;entryDx=0;entryDy=0;" edge="1" parent="1" source="Ldt3ZAQf8FWS-OpaR_-I-9" target="Ldt3ZAQf8FWS-OpaR_-I-10">
          <mxGeometry relative="1" as="geometry" />
        </mxCell>
        <mxCell id="Ldt3ZAQf8FWS-OpaR_-I-9" value="System prompt" style="rounded=1;whiteSpace=wrap;html=1;" vertex="1" parent="1">
          <mxGeometry x="680" y="520" width="120" height="80" as="geometry" />
        </mxCell>
        <mxCell id="Ldt3ZAQf8FWS-OpaR_-I-17" style="edgeStyle=orthogonalEdgeStyle;rounded=0;orthogonalLoop=1;jettySize=auto;html=1;exitX=0.5;exitY=1;exitDx=0;exitDy=0;entryX=0.5;entryY=0;entryDx=0;entryDy=0;" edge="1" parent="1" source="Ldt3ZAQf8FWS-OpaR_-I-10" target="Ldt3ZAQf8FWS-OpaR_-I-16">
          <mxGeometry relative="1" as="geometry" />
        </mxCell>
        <mxCell id="Ldt3ZAQf8FWS-OpaR_-I-10" value="Final prompt" style="rounded=1;whiteSpace=wrap;html=1;" vertex="1" parent="1">
          <mxGeometry x="480" y="520" width="120" height="80" as="geometry" />
        </mxCell>
        <mxCell id="Ldt3ZAQf8FWS-OpaR_-I-16" value="LLM" style="rounded=1;whiteSpace=wrap;html=1;" vertex="1" parent="1">
          <mxGeometry x="480" y="680" width="120" height="80" as="geometry" />
        </mxCell>
        <mxCell id="Ldt3ZAQf8FWS-OpaR_-I-18" value="" style="swimlane;startSize=0;" vertex="1" parent="1">
          <mxGeometry x="40" width="800" height="800" as="geometry" />
        </mxCell>
        <mxCell id="Ldt3ZAQf8FWS-OpaR_-I-19" value="Query" style="text;html=1;align=center;verticalAlign=middle;whiteSpace=wrap;rounded=0;" vertex="1" parent="Ldt3ZAQf8FWS-OpaR_-I-18">
          <mxGeometry width="120" height="40" as="geometry" />
        </mxCell>
      </root>
    </mxGraphModel>
  </diagram>
</mxfile>
